<svg width="100" height="100" viewBox="0 0 100 100" fill="none" xmlns="http://www.w3.org/2000/svg" aria-hidden="true">
  <path d="M53.4046 26.098L53.3704 26.1414C51.5644 28.3424 50.4255 31.0357 50.0766 33.928V33.9425L50.0013 34.062L49.9261 33.9425V33.928C49.5738 31.0357 48.4348 28.3424 46.6323 26.1414L46.5981 26.098L50.0013 22.4961L53.4046 26.098Z" fill="white"/>
  <path d="M49.9922 52.3651C49.9922 52.3651 50.0025 52.3941 50.0059 52.4122C50.0059 52.4122 50.0162 52.3832 50.0196 52.3651C50.7618 47.6229 54.278 43.8726 58.745 43.0436L61.813 34.7031C55.7556 34.7031 50.3616 39.8544 50.0059 46.5116C49.6536 39.8508 44.2563 34.7031 38.1988 34.7031L41.2669 43.0436C45.7339 43.8726 49.25 47.6229 49.9922 52.3651Z" fill="white"/>
  <path d="M50.8722 61.4236C51.6999 58.3104 54.4123 56.1348 57.4701 56.1348C57.9968 56.1348 58.8074 56.2289 59.6489 56.5185L67.4918 48.2251L67.3276 48.1274C65.5011 47.0486 63.6302 46.5273 61.6087 46.5273C55.9172 46.5273 51.0158 50.9112 50 56.6018C48.9841 50.9148 44.0828 46.5273 38.3913 46.5273C36.3698 46.5273 34.4955 47.0522 32.6724 48.1274L32.5082 48.2251L40.3477 56.5222C41.3499 56.1384 41.9929 56.1348 42.5333 56.1348C45.5911 56.1348 48.3069 58.3104 49.1312 61.4236L49.2167 61.7422C49.3159 62.1983 49.3741 62.6653 49.3877 63.125V63.8165C49.1962 67.3641 46.6275 70.2202 43.2824 70.6003L43.2174 70.6076L42.3726 71.5017H57.6411L56.7963 70.6076L56.7313 70.6003C53.3827 70.2202 50.8141 67.3641 50.6259 63.8165V63.125C50.6396 62.6617 50.6978 62.1983 50.7969 61.7422L50.8825 61.4236H50.8722Z" fill="white"/>
</svg>
